<svg width="26.000000" height="30.000000" viewBox="0 0 26 30" fill="none" xmlns="http://www.w3.org/2000/svg" xmlns:xlink="http://www.w3.org/1999/xlink">
	<defs>
		<clipPath id="clip30_99">
			<rect id="svg" width="26.000000" height="30.000000" fill="white" fill-opacity="0"/>
		</clipPath>
	</defs>
	<g clip-path="url(#clip30_99)">
		<path id="path" d="M21.043 23.4375C24.0625 21.0352 26 17.3086 26 13.125C26 5.87695 20.1797 0 13 0C5.82031 0 0 5.87695 0 13.125C0 17.3086 1.9375 21.0352 4.95703 23.4375L21.043 23.4375ZM8.84961 4.93945C9.00195 4.5293 9.57031 4.5293 9.7207 4.93945L10.2891 6.48633L11.8223 7.06055C12.2285 7.21289 12.2285 7.78711 11.8223 7.93945L10.2891 8.51367L9.7207 10.0605C9.57031 10.4707 9.00195 10.4707 8.84961 10.0605L8.28125 8.51367L6.75 7.93945C6.34375 7.78711 6.34375 7.21289 6.75 7.06055L8.28125 6.48633L8.84961 4.93945ZM18.0781 7.75195L19.1465 10.6699L22.0371 11.748C22.4434 11.9004 22.4434 12.4746 22.0371 12.627L19.1465 13.7051L18.0781 16.623C17.9277 17.0332 17.3594 17.0332 17.207 16.623L16.1406 13.7051L13.25 12.627C12.8438 12.4746 12.8438 11.9004 13.25 11.748L16.1406 10.6699L17.207 7.75195C17.3594 7.3418 17.9277 7.3418 18.0781 7.75195Z" fill="#E41E6B" fill-opacity="1.000000" fill-rule="nonzero"/>
		<path id="path" d="M21.043 23.4375L4.95508 23.4375L1.25781 27.7383C1.04297 27.9844 0.927734 28.3066 0.927734 28.6348C0.927734 29.3906 1.53125 30 2.2793 30L23.7188 30C24.4668 30 25.0703 29.3906 25.0703 28.6348C25.0703 28.3066 24.9551 27.9902 24.7402 27.7383L21.043 23.4375Z" fill="#AC104D" fill-opacity="1.000000" fill-rule="nonzero"/>
	</g>
</svg>
