<svg width="33.000000" height="33.000000" viewBox="0 0 32 32" fill="none" xmlns="http://www.w3.org/2000/svg" xmlns:xlink="http://www.w3.org/1999/xlink">
	<desc>
			Created with Pixso.
	</desc>
	<defs>
		<clipPath id="clip63_26">
			<rect id="svg" width="32.000000" height="32.000000" fill="white" fill-opacity="0"/>
		</clipPath>
		<linearGradient id="paint_linear_63_28_0" x1="9.999997" y1="4.362305" x2="27.659910" y2="26.000011" gradientUnits="userSpaceOnUse">
			<stop stop-color="#143D71"/>
			<stop offset="1.000000" stop-color="#AFD2FF"/>
		</linearGradient>
		<linearGradient id="paint_linear_63_29_0" x1="0.000001" y1="2.756024" x2="6.421786" y2="28.000013" gradientUnits="userSpaceOnUse">
			<stop stop-color="#143D71"/>
			<stop offset="1.000000" stop-color="#AFD2FF"/>
		</linearGradient>
	</defs>
	<g clip-path="url(#clip63_26)">
		<path id="path" d="M10 4C10 2.89 10.89 2 12 2L30 2C31.1 2 32 2.89 32 4C32 5.1 31.1 6 30 6L12 6C10.89 6 10 5.1 10 4ZM10 14C10 12.89 10.89 12 12 12L30 12C31.1 12 32 12.89 32 14C32 15.1 31.1 16 30 16L12 16C10.89 16 10 15.1 10 14ZM12 22L30 22C31.1 22 32 22.89 32 24C32 25.1 31.1 26 30 26L12 26C10.89 26 10 25.1 10 24C10 22.89 10.89 22 12 22Z" fill="url(#paint_linear_63_28_0)" fill-opacity="1.000000" fill-rule="nonzero"/>
		<path id="path" d="M4 8C4.26 8 4.52 7.97 4.78 7.92C5.03 7.87 5.28 7.79 5.53 7.69C5.77 7.59 6 7.47 6.22 7.32C6.44 7.17 6.64 7.01 6.82 6.82C7.01 6.64 7.17 6.44 7.32 6.22C7.47 6 7.59 5.77 7.69 5.53C7.79 5.28 7.87 5.03 7.92 4.78C7.97 4.52 8 4.26 8 4C8 3.73 7.97 3.47 7.92 3.21C7.87 2.96 7.79 2.71 7.69 2.46C7.59 2.22 7.47 1.99 7.32 1.77C7.17 1.55 7.01 1.35 6.82 1.17C6.64 0.98 6.44 0.82 6.22 0.67C6 0.52 5.77 0.4 5.53 0.3C5.28 0.2 5.03 0.12 4.78 0.07C4.52 0.02 4.26 0 4 0C3.73 0 3.47 0.02 3.21 0.07C2.96 0.12 2.71 0.2 2.46 0.3C2.22 0.4 1.99 0.52 1.77 0.67C1.55 0.82 1.35 0.98 1.17 1.17C0.98 1.35 0.82 1.55 0.67 1.77C0.52 1.99 0.4 2.22 0.3 2.46C0.2 2.71 0.12 2.96 0.07 3.21C0.02 3.47 0 3.73 0 4C0 4.26 0.02 4.52 0.07 4.78C0.12 5.03 0.2 5.28 0.3 5.53C0.4 5.77 0.52 6 0.67 6.22C0.82 6.44 0.98 6.64 1.17 6.82C1.35 7.01 1.55 7.17 1.77 7.32C1.99 7.47 2.22 7.59 2.46 7.69C2.71 7.79 2.96 7.87 3.21 7.92C3.47 7.97 3.73 8 4 8ZM4 12.5C4.09 12.5 4.19 12.5 4.29 12.52C4.38 12.54 4.48 12.57 4.57 12.61C4.66 12.65 4.75 12.69 4.83 12.75C4.91 12.8 4.99 12.86 5.06 12.93C5.12 13 5.19 13.08 5.24 13.16C5.3 13.24 5.34 13.33 5.38 13.42C5.42 13.51 5.45 13.61 5.47 13.7C5.49 13.8 5.5 13.9 5.5 14C5.5 14.09 5.49 14.19 5.47 14.29C5.45 14.38 5.42 14.48 5.38 14.57C5.34 14.66 5.3 14.75 5.24 14.83C5.19 14.91 5.12 14.99 5.06 15.06C4.99 15.13 4.91 15.19 4.83 15.24C4.75 15.3 4.66 15.34 4.57 15.38C4.48 15.42 4.38 15.45 4.29 15.47C4.19 15.49 4.09 15.5 4 15.5C3.9 15.5 3.8 15.49 3.7 15.47C3.61 15.45 3.51 15.42 3.42 15.38C3.33 15.34 3.24 15.3 3.16 15.24C3.08 15.19 3 15.13 2.93 15.06C2.87 14.99 2.8 14.91 2.75 14.83C2.69 14.75 2.65 14.66 2.61 14.57C2.57 14.48 2.54 14.38 2.52 14.29C2.5 14.19 2.5 14.09 2.5 14C2.5 13.9 2.5 13.8 2.52 13.7C2.54 13.61 2.57 13.51 2.61 13.42C2.65 13.33 2.69 13.24 2.75 13.16C2.8 13.08 2.87 13 2.93 12.93C3 12.86 3.08 12.8 3.16 12.75C3.24 12.69 3.33 12.65 3.42 12.61C3.51 12.57 3.61 12.54 3.7 12.52C3.8 12.5 3.9 12.5 4 12.5ZM4 18C4.26 18 4.52 17.97 4.78 17.92C5.03 17.87 5.28 17.79 5.53 17.69C5.77 17.59 6 17.47 6.22 17.32C6.44 17.18 6.64 17.01 6.82 16.82C7.01 16.64 7.17 16.44 7.32 16.22C7.47 16 7.59 15.77 7.69 15.53C7.79 15.28 7.87 15.03 7.92 14.78C7.97 14.52 8 14.26 8 14C8 13.73 7.97 13.47 7.92 13.21C7.87 12.96 7.79 12.71 7.69 12.46C7.59 12.22 7.47 11.99 7.32 11.77C7.17 11.55 7.01 11.35 6.82 11.17C6.64 10.98 6.44 10.82 6.22 10.67C6 10.52 5.77 10.4 5.53 10.3C5.28 10.2 5.03 10.12 4.78 10.07C4.52 10.02 4.26 10 4 10C3.73 10 3.47 10.02 3.21 10.07C2.96 10.12 2.71 10.2 2.46 10.3C2.22 10.4 1.99 10.52 1.77 10.67C1.55 10.82 1.35 10.98 1.17 11.17C0.98 11.35 0.82 11.55 0.67 11.77C0.52 11.99 0.4 12.22 0.3 12.46C0.2 12.71 0.12 12.96 0.07 13.21C0.02 13.47 0 13.73 0 14C0 14.26 0.02 14.52 0.07 14.78C0.12 15.03 0.2 15.28 0.3 15.53C0.4 15.77 0.52 16 0.67 16.22C0.82 16.44 0.98 16.64 1.17 16.82C1.35 17.01 1.55 17.18 1.77 17.32C1.99 17.47 2.22 17.59 2.46 17.69C2.71 17.79 2.96 17.87 3.21 17.92C3.47 17.97 3.73 18 4 18ZM4 22.5C4.09 22.5 4.19 22.5 4.29 22.52C4.38 22.54 4.48 22.57 4.57 22.61C4.66 22.65 4.75 22.69 4.83 22.75C4.91 22.8 4.99 22.86 5.06 22.93C5.12 23 5.19 23.08 5.24 23.16C5.3 23.24 5.34 23.33 5.38 23.42C5.42 23.51 5.45 23.61 5.47 23.7C5.49 23.8 5.5 23.9 5.5 24C5.5 24.09 5.49 24.19 5.47 24.29C5.45 24.38 5.42 24.48 5.38 24.57C5.34 24.66 5.3 24.75 5.24 24.83C5.19 24.91 5.12 24.99 5.06 25.06C4.99 25.13 4.91 25.19 4.83 25.24C4.75 25.3 4.66 25.34 4.57 25.38C4.48 25.42 4.38 25.45 4.29 25.47C4.19 25.49 4.09 25.5 4 25.5C3.9 25.5 3.8 25.49 3.7 25.47C3.61 25.45 3.51 25.42 3.42 25.38C3.33 25.34 3.24 25.3 3.16 25.24C3.08 25.19 3 25.13 2.93 25.06C2.87 24.99 2.8 24.91 2.75 24.83C2.69 24.75 2.65 24.66 2.61 24.57C2.57 24.48 2.54 24.38 2.52 24.29C2.5 24.19 2.5 24.09 2.5 24C2.5 23.9 2.5 23.8 2.52 23.7C2.54 23.61 2.57 23.51 2.61 23.42C2.65 23.33 2.69 23.24 2.75 23.16C2.8 23.08 2.87 23 2.93 22.93C3 22.86 3.08 22.8 3.16 22.75C3.24 22.69 3.33 22.65 3.42 22.61C3.51 22.57 3.61 22.54 3.7 22.52C3.8 22.5 3.9 22.5 4 22.5ZM4 28C4.26 28 4.52 27.97 4.78 27.92C5.03 27.87 5.28 27.79 5.53 27.69C5.77 27.59 6 27.47 6.22 27.32C6.44 27.18 6.64 27.01 6.82 26.82C7.01 26.64 7.17 26.44 7.32 26.22C7.47 26 7.59 25.77 7.69 25.53C7.79 25.28 7.87 25.03 7.92 24.78C7.97 24.52 8 24.26 8 24C8 23.73 7.97 23.47 7.92 23.21C7.87 22.96 7.79 22.71 7.69 22.46C7.59 22.22 7.47 21.99 7.32 21.77C7.17 21.55 7.01 21.35 6.82 21.17C6.64 20.98 6.44 20.82 6.22 20.67C6 20.52 5.77 20.4 5.53 20.3C5.28 20.2 5.03 20.12 4.78 20.07C4.52 20.02 4.26 20 4 20C3.73 20 3.47 20.02 3.21 20.07C2.96 20.12 2.71 20.2 2.46 20.3C2.22 20.4 1.99 20.52 1.77 20.67C1.55 20.82 1.35 20.98 1.17 21.17C0.98 21.35 0.82 21.55 0.67 21.77C0.52 21.99 0.4 22.22 0.3 22.46C0.2 22.71 0.12 22.96 0.07 23.21C0.02 23.47 0 23.73 0 24C0 24.26 0.02 24.52 0.07 24.78C0.12 25.03 0.2 25.28 0.3 25.53C0.4 25.77 0.52 26 0.67 26.22C0.82 26.44 0.98 26.64 1.17 26.82C1.35 27.01 1.55 27.18 1.77 27.32C1.99 27.47 2.22 27.59 2.46 27.69C2.71 27.79 2.96 27.87 3.21 27.92C3.47 27.97 3.73 28 4 28Z" fill="url(#paint_linear_63_29_0)" fill-opacity="1.000000" fill-rule="nonzero"/>
	</g>
</svg>
