<svg width="45.000000" height="42.000000" viewBox="0 0 45 42" fill="none" xmlns="http://www.w3.org/2000/svg" xmlns:xlink="http://www.w3.org/1999/xlink">
	<desc>
			Created with Pixso.
	</desc>
	<defs>
		<clipPath id="clip2_21">
			<rect id="trace" width="45.000000" height="42.000000" fill="white" fill-opacity="0"/>
		</clipPath>
		<linearGradient id="paint_linear_2_23_0" x1="22.500000" y1="0.000000" x2="22.500000" y2="44.000000" gradientUnits="userSpaceOnUse">
			<stop offset="0.007634" stop-color="#7C34D4"/>
			<stop offset="1.000000" stop-color="#7B2EDB" stop-opacity="0.298039"/>
		</linearGradient>
	</defs>
	<g clip-path="url(#clip2_21)">
		<path id="path" d="M19.8049 2.60974L17.0739 5.21948L18.3708 6.47089L19.6677 7.72205L21.0471 6.42139L22.4264 5.12097L25.166 7.72388L27.9057 10.3268L25.1675 12.9361L22.429 15.5452L21.0482 14.2433L19.6677 12.9415L18.3708 14.1927L17.0739 15.4442L19.8049 18.0539L22.5363 20.6636L27.8406 15.613C30.7581 12.8353 33.145 10.4587 33.145 10.3318C33.145 10.2049 30.7581 7.82831 27.8406 5.0506L22.5363 0L19.8049 2.60974ZM7.64502 14.1961L0.861877 20.6623L11.7013 30.9925L22.5408 41.3225L33.3821 30.9925L44.2234 20.6623L40.1143 16.7469L36.005 12.8314L29.2145 19.2987L22.4238 25.766L18.3727 21.9109L14.3216 18.0559L12.9532 19.3598L11.5848 20.6636L17.0034 25.8266L22.4219 30.9897L29.2126 24.5223L36.0034 18.0548L37.3724 19.3593L38.7413 20.6638L30.5822 28.4384L22.4229 36.2126L14.2751 28.4492L6.12744 20.6861L11.5617 15.5797L16.996 10.4733L16.5134 9.83484C16.248 9.48383 15.6702 8.86676 15.2294 8.46332L14.4279 7.73004L7.64502 14.1961ZM22.4097 43.9905C35.8351 44.0223 46.9005 43.9713 46.9993 43.877C47.0984 43.7828 36.1139 43.7567 22.5896 43.8192L-2 43.9327L22.4097 43.9905Z" fill="url(#paint_linear_2_23_0)" fill-opacity="1.000000" fill-rule="evenodd"/>
	</g>
</svg>
