<svg width="33.000000" height="33.000000" viewBox="0 0 33 34" fill="none" xmlns="http://www.w3.org/2000/svg" xmlns:xlink="http://www.w3.org/1999/xlink">
	<desc>
			Created with Pixso.
	</desc>
	<defs>
		<linearGradient id="paint_linear_63_5_0" x1="0.999995" y1="4.149740" x2="25.081699" y2="33.000015" gradientUnits="userSpaceOnUse">
			<stop stop-color="#143D71"/>
			<stop offset="1.000000" stop-color="#AFD2FF"/>
		</linearGradient>
	</defs>
	<path id="path" d="M12.6 12C10.95 10.92 9.86 9.08 9.86 7C9.86 3.68 12.6 1 16 1C19.26 1 21.93 3.49 22.12 6.63M9.87 17.37C8.09 18.23 5.91 18.23 4.07 17.19C1.13 15.53 0.12 11.86 1.82 9C3.45 6.23 6.99 5.22 9.87 6.63M13.26 22.37C13.14 24.31 12.05 26.15 10.2 27.19C7.27 28.85 3.51 27.86 1.82 25C0.19 22.23 1.06 18.73 3.75 16.99M18.73 11.62C18.85 9.68 19.94 7.84 21.79 6.8C24.72 5.14 28.48 6.13 30.17 8.99C31.8 11.76 30.93 15.26 28.24 17M22.12 16.62C23.9 15.76 26.08 15.76 27.92 16.8C30.86 18.46 31.87 22.13 30.17 24.99C28.54 27.76 25 28.77 22.12 27.36M19.39 22C21.04 23.07 22.13 24.91 22.13 27C22.13 30.31 19.39 33 16 33C12.73 33 10.06 30.5 9.87 27.36M16 23C12.6 23 9.86 20.31 9.86 17C9.86 13.68 12.6 11 16 11C19.39 11 22.13 13.68 22.13 17C22.13 20.31 19.39 23 16 23Z" stroke="url(#paint_linear_63_5_0)" stroke-opacity="1.000000" stroke-width="2.000000"/>
</svg>
