<svg width="33.000000" height="33.000000" viewBox="0 0 34 34" fill="none" xmlns="http://www.w3.org/2000/svg" xmlns:xlink="http://www.w3.org/1999/xlink">
	<desc>
			Created with Pixso.
	</desc>
	<defs>
		<clipPath id="clip63_164">
			<rect id="qr-code" width="34.000000" height="34.000000" fill="white" fill-opacity="0"/>
		</clipPath>
		<linearGradient id="paint_linear_63_165_0" x1="4.781248" y1="5.879353" x2="13.736631" y2="15.937508" gradientUnits="userSpaceOnUse">
			<stop stop-color="#143D71"/>
			<stop offset="1.000000" stop-color="#AFD2FF"/>
		</linearGradient>
		<linearGradient id="paint_linear_63_166_0" x1="4.781248" y1="19.160603" x2="13.736631" y2="29.218758" gradientUnits="userSpaceOnUse">
			<stop stop-color="#143D71"/>
			<stop offset="1.000000" stop-color="#AFD2FF"/>
		</linearGradient>
		<linearGradient id="paint_linear_63_167_0" x1="18.062498" y1="5.879353" x2="27.017881" y2="15.937508" gradientUnits="userSpaceOnUse">
			<stop stop-color="#143D71"/>
			<stop offset="1.000000" stop-color="#AFD2FF"/>
		</linearGradient>
		<linearGradient id="paint_linear_63_168_0" x1="18.062498" y1="18.689989" x2="20.621180" y2="24.437504" gradientUnits="userSpaceOnUse">
			<stop stop-color="#143D71"/>
			<stop offset="1.000000" stop-color="#AFD2FF"/>
		</linearGradient>
		<linearGradient id="paint_linear_63_169_0" x1="18.062498" y1="19.160604" x2="27.017883" y2="29.218756" gradientUnits="userSpaceOnUse">
			<stop stop-color="#143D71"/>
			<stop offset="1.000000" stop-color="#AFD2FF"/>
		</linearGradient>
	</defs>
	<g clip-path="url(#clip63_164)">
		<path id="path" d="M13.28 4.78L7.43 4.78C7.26 4.78 7.09 4.79 6.91 4.83C6.74 4.86 6.58 4.91 6.42 4.98C6.26 5.05 6.1 5.13 5.96 5.22C5.81 5.32 5.68 5.43 5.56 5.56C5.43 5.68 5.32 5.81 5.22 5.96C5.13 6.1 5.05 6.26 4.98 6.42C4.91 6.58 4.86 6.74 4.83 6.91C4.79 7.09 4.78 7.26 4.78 7.43L4.78 13.28C4.78 13.45 4.79 13.62 4.83 13.79C4.86 13.97 4.91 14.13 4.98 14.29C5.05 14.45 5.13 14.61 5.22 14.75C5.32 14.9 5.43 15.03 5.56 15.15C5.68 15.28 5.81 15.39 5.96 15.48C6.1 15.58 6.26 15.66 6.42 15.73C6.58 15.8 6.74 15.85 6.91 15.88C7.09 15.92 7.26 15.93 7.43 15.93L13.28 15.93C13.45 15.93 13.62 15.92 13.79 15.88C13.97 15.85 14.13 15.8 14.29 15.73C14.45 15.66 14.61 15.58 14.75 15.48C14.9 15.39 15.03 15.28 15.15 15.15C15.28 15.03 15.39 14.9 15.48 14.75C15.58 14.61 15.66 14.45 15.73 14.29C15.8 14.13 15.85 13.97 15.88 13.79C15.91 13.62 15.93 13.45 15.93 13.28L15.93 7.43C15.93 7.26 15.91 7.09 15.88 6.91C15.85 6.74 15.8 6.58 15.73 6.42C15.66 6.26 15.58 6.1 15.48 5.96C15.39 5.81 15.28 5.68 15.15 5.56C15.03 5.43 14.9 5.32 14.75 5.22C14.61 5.13 14.45 5.05 14.29 4.98C14.13 4.91 13.97 4.86 13.79 4.83C13.62 4.79 13.45 4.78 13.28 4.78ZM12.75 12.75L7.96 12.75L7.96 7.96L12.75 7.96L12.75 12.75Z" fill="url(#paint_linear_63_165_0)" fill-opacity="1.000000" fill-rule="nonzero"/>
		<path id="path" d="M13.28 18.06L7.43 18.06C7.26 18.06 7.09 18.07 6.91 18.11C6.74 18.14 6.58 18.19 6.42 18.26C6.26 18.33 6.1 18.41 5.96 18.51C5.81 18.6 5.68 18.71 5.56 18.84C5.43 18.96 5.32 19.09 5.22 19.24C5.13 19.38 5.05 19.54 4.98 19.7C4.91 19.86 4.86 20.02 4.83 20.2C4.79 20.37 4.78 20.54 4.78 20.71L4.78 26.56C4.78 26.73 4.79 26.9 4.83 27.08C4.86 27.25 4.91 27.41 4.98 27.57C5.05 27.73 5.13 27.89 5.22 28.03C5.32 28.18 5.43 28.31 5.56 28.43C5.68 28.56 5.81 28.67 5.96 28.77C6.1 28.86 6.26 28.94 6.42 29.01C6.58 29.08 6.74 29.13 6.91 29.16C7.09 29.2 7.26 29.21 7.43 29.21L13.28 29.21C13.45 29.21 13.62 29.2 13.79 29.16C13.97 29.13 14.13 29.08 14.29 29.01C14.45 28.94 14.61 28.86 14.75 28.77C14.9 28.67 15.03 28.56 15.15 28.43C15.28 28.31 15.39 28.18 15.48 28.03C15.58 27.89 15.66 27.73 15.73 27.57C15.8 27.41 15.85 27.25 15.88 27.08C15.91 26.9 15.93 26.73 15.93 26.56L15.93 20.71C15.93 20.54 15.91 20.37 15.88 20.2C15.85 20.02 15.8 19.86 15.73 19.7C15.66 19.54 15.58 19.38 15.48 19.24C15.39 19.09 15.28 18.96 15.15 18.84C15.03 18.71 14.9 18.6 14.75 18.51C14.61 18.41 14.45 18.33 14.29 18.26C14.13 18.19 13.97 18.14 13.79 18.11C13.62 18.07 13.45 18.06 13.28 18.06ZM12.75 26.03L7.96 26.03L7.96 21.25L12.75 21.25L12.75 26.03Z" fill="url(#paint_linear_63_166_0)" fill-opacity="1.000000" fill-rule="nonzero"/>
		<path id="path" d="M26.56 4.78L20.71 4.78C20.54 4.78 20.37 4.79 20.2 4.83C20.02 4.86 19.86 4.91 19.7 4.98C19.54 5.05 19.38 5.13 19.24 5.22C19.09 5.32 18.96 5.43 18.84 5.56C18.71 5.68 18.6 5.81 18.51 5.96C18.41 6.1 18.33 6.26 18.26 6.42C18.19 6.58 18.14 6.74 18.11 6.91C18.08 7.09 18.06 7.26 18.06 7.43L18.06 13.28C18.06 13.45 18.08 13.62 18.11 13.79C18.14 13.97 18.19 14.13 18.26 14.29C18.33 14.45 18.41 14.61 18.51 14.75C18.6 14.9 18.71 15.03 18.84 15.15C18.96 15.28 19.09 15.39 19.24 15.48C19.38 15.58 19.54 15.66 19.7 15.73C19.86 15.8 20.02 15.85 20.2 15.88C20.37 15.92 20.54 15.93 20.71 15.93L26.56 15.93C26.73 15.93 26.9 15.92 27.08 15.88C27.25 15.85 27.41 15.8 27.57 15.73C27.73 15.66 27.89 15.58 28.03 15.48C28.18 15.39 28.31 15.28 28.43 15.15C28.56 15.03 28.67 14.9 28.77 14.75C28.86 14.61 28.94 14.45 29.01 14.29C29.08 14.13 29.13 13.97 29.16 13.79C29.2 13.62 29.21 13.45 29.21 13.28L29.21 7.43C29.21 7.26 29.2 7.09 29.16 6.91C29.13 6.74 29.08 6.58 29.01 6.42C28.94 6.26 28.86 6.1 28.77 5.96C28.67 5.81 28.56 5.68 28.43 5.56C28.31 5.43 28.18 5.32 28.03 5.22C27.89 5.13 27.73 5.05 27.57 4.98C27.41 4.91 27.25 4.86 27.08 4.83C26.9 4.79 26.73 4.78 26.56 4.78ZM26.03 12.75L21.25 12.75L21.25 7.96L26.03 7.96L26.03 12.75Z" fill="url(#paint_linear_63_167_0)" fill-opacity="1.000000" fill-rule="nonzero"/>
		<path id="path" d="M19.65 24.43C19.86 24.43 20.07 24.39 20.26 24.31C20.46 24.23 20.63 24.12 20.78 23.97C20.93 23.82 21.04 23.64 21.12 23.45C21.21 23.25 21.25 23.05 21.25 22.84L21.25 19.65C21.25 19.44 21.21 19.24 21.12 19.04C21.04 18.85 20.93 18.67 20.78 18.52C20.63 18.37 20.46 18.26 20.26 18.18C20.07 18.1 19.86 18.06 19.65 18.06C19.44 18.06 19.24 18.1 19.04 18.18C18.85 18.26 18.67 18.37 18.52 18.52C18.37 18.67 18.26 18.85 18.18 19.04C18.1 19.24 18.06 19.44 18.06 19.65L18.06 22.84C18.06 23.05 18.1 23.25 18.18 23.45C18.26 23.64 18.37 23.82 18.52 23.97C18.67 24.12 18.85 24.23 19.04 24.31C19.24 24.39 19.44 24.43 19.65 24.43Z" fill="url(#paint_linear_63_168_0)" fill-opacity="1.000000" fill-rule="nonzero"/>
		<path id="path" d="M27.62 20.18L26.03 20.18L26.03 19.65C26.03 19.44 25.99 19.24 25.91 19.04C25.82 18.85 25.71 18.67 25.56 18.52C25.41 18.37 25.24 18.26 25.04 18.18C24.85 18.1 24.64 18.06 24.43 18.06C24.22 18.06 24.02 18.1 23.82 18.18C23.63 18.26 23.46 18.37 23.31 18.52C23.16 18.67 23.04 18.85 22.96 19.04C22.88 19.24 22.84 19.44 22.84 19.65L22.84 26.03L19.65 26.03C19.44 26.03 19.24 26.07 19.04 26.15C18.85 26.23 18.67 26.34 18.52 26.49C18.37 26.64 18.26 26.81 18.18 27.01C18.1 27.21 18.06 27.41 18.06 27.62C18.06 27.83 18.1 28.03 18.18 28.23C18.26 28.43 18.37 28.6 18.52 28.75C18.67 28.9 18.85 29.01 19.04 29.09C19.24 29.17 19.44 29.21 19.65 29.21L24.43 29.21C24.64 29.21 24.85 29.17 25.04 29.09C25.24 29.01 25.41 28.9 25.56 28.75C25.71 28.6 25.82 28.43 25.91 28.23C25.99 28.03 26.03 27.83 26.03 27.62L26.03 23.37L27.62 23.37C27.83 23.37 28.04 23.33 28.23 23.25C28.42 23.17 28.6 23.05 28.75 22.9C28.9 22.75 29.01 22.58 29.09 22.39C29.17 22.19 29.21 21.99 29.21 21.78C29.21 21.56 29.17 21.36 29.09 21.17C29.01 20.97 28.9 20.8 28.75 20.65C28.6 20.5 28.42 20.38 28.23 20.3C28.04 20.22 27.83 20.18 27.62 20.18Z" fill="url(#paint_linear_63_169_0)" fill-opacity="1.000000" fill-rule="nonzero"/>
	</g>
</svg>
