<svg width="33.000000" height="33.000000" viewBox="0 0 32 37" fill="none" xmlns="http://www.w3.org/2000/svg" xmlns:xlink="http://www.w3.org/1999/xlink">
	<desc>
			Created with Pixso.
	</desc>
	<defs>
		<clipPath id="clip63_78">
			<rect id="svg" width="32.000000" height="37.000000" fill="white" fill-opacity="0"/>
		</clipPath>
		<linearGradient id="paint_linear_63_80_0" x1="-0.000003" y1="2.845224" x2="25.687145" y2="28.906265" gradientUnits="userSpaceOnUse">
			<stop stop-color="#143D71"/>
			<stop offset="1.000000" stop-color="#AFD2FF"/>
		</linearGradient>
		<linearGradient id="paint_linear_63_81_0" x1="1.142576" y1="29.702908" x2="24.994926" y2="37.000004" gradientUnits="userSpaceOnUse">
			<stop stop-color="#143D71"/>
			<stop offset="1.000000" stop-color="#AFD2FF"/>
		</linearGradient>
	</defs>
	<g clip-path="url(#clip63_78)">
		<path id="path" d="M25.9 28.9C29.61 25.94 32 21.34 32 16.18C32 7.24 24.83 0 16 0C7.16 0 0 7.24 0 16.18C0 21.34 2.38 25.94 6.09 28.9L25.9 28.9ZM10.89 6.09C11.07 5.58 11.77 5.58 11.96 6.09L12.66 7.99L14.54 8.7C15.04 8.89 15.04 9.6 14.54 9.79L12.66 10.5L11.96 12.4C11.77 12.91 11.07 12.91 10.89 12.4L10.19 10.5L8.3 9.79C7.8 9.6 7.8 8.89 8.3 8.7L10.19 7.99L10.89 6.09ZM22.25 9.56L23.56 13.15L27.12 14.48C27.62 14.67 27.62 15.38 27.12 15.57L23.56 16.9L22.25 20.5C22.06 21 21.36 21 21.17 20.5L19.86 16.9L16.3 15.57C15.8 15.38 15.8 14.67 16.3 14.48L19.86 13.15L21.17 9.56C21.36 9.05 22.06 9.05 22.25 9.56Z" fill="url(#paint_linear_63_80_0)" fill-opacity="1.000000" fill-rule="nonzero"/>
		<path id="path" d="M25.89 28.9L6.09 28.9L1.54 34.21C1.28 34.51 1.14 34.91 1.14 35.31C1.14 36.24 1.88 37 2.8 37L29.19 37C30.11 37 30.85 36.24 30.85 35.31C30.85 34.91 30.71 34.52 30.45 34.21L25.89 28.9Z" fill="url(#paint_linear_63_81_0)" fill-opacity="1.000000" fill-rule="nonzero"/>
	</g>
</svg>
