<svg width="33.000000" height="33.000000" viewBox="0 0 33 31" fill="none" xmlns="http://www.w3.org/2000/svg" xmlns:xlink="http://www.w3.org/1999/xlink">
	<desc>
			Created with Pixso.
	</desc>
	<defs>
		<clipPath id="clip63_15">
			<rect id="round.svg" width="32.210209" height="31.150616" transform="translate(-0.030273 -0.516815)" fill="white" fill-opacity="0"/>
		</clipPath>
		<linearGradient id="paint_linear_63_18_0" x1="9.902341" y1="0.870071" x2="27.559582" y2="13.597704" gradientUnits="userSpaceOnUse">
			<stop stop-color="#143D71"/>
			<stop offset="1.000000" stop-color="#AFD2FF"/>
		</linearGradient>
		<linearGradient id="paint_linear_63_19_0" x1="10.422848" y1="17.672255" x2="27.832066" y2="30.607260" gradientUnits="userSpaceOnUse">
			<stop stop-color="#143D71"/>
			<stop offset="1.000000" stop-color="#AFD2FF"/>
		</linearGradient>
		<linearGradient id="paint_linear_63_20_0" x1="-0.034181" y1="5.500001" x2="10.500001" y2="28.194027" gradientUnits="userSpaceOnUse">
			<stop stop-color="#143D71"/>
			<stop offset="1.000000" stop-color="#AFD2FF"/>
		</linearGradient>
	</defs>
	<g clip-path="url(#clip63_15)">
		<path id="path" d="M14.06 9.36C15.99 12.39 16.86 13.15 19.54 13.45C21.59 13.7 23.93 13.53 26.11 13.58C27.11 13.62 30 13.58 31 13.37C31.92 13.15 32.05 12.73 31.75 11.97C31.13 10.28 28.49 6.11 27.32 4.63C26.53 3.66 25.65 2.77 24.73 2.05C23.43 1.04 22.01 0.41 20.38 0.07C17.49 -0.56 15.23 -0.69 12.26 -0.31C10.92 -0.14 9.59 0.15 9.96 1.72C10.3 3.19 13.14 7.84 14.06 9.36Z" fill="url(#paint_linear_63_18_0)" fill-opacity="1.000000" fill-rule="evenodd"/>
		<path id="path" d="M22.43 16.32C18.83 16.45 17.78 16.87 16.15 19.06C14.94 20.71 13.89 22.86 12.76 24.72C12.26 25.56 10.84 28.14 10.5 29.15C10.25 30 10.55 30.33 11.34 30.46C13.1 30.76 18.03 30.54 19.83 30.25C21.09 30.08 22.26 29.74 23.35 29.28C24.85 28.64 26.15 27.72 27.24 26.49C29.2 24.3 30.46 22.36 31.63 19.57C32.17 18.3 32.55 17 31.04 16.57C29.58 16.11 24.18 16.28 22.43 16.32Z" fill="url(#paint_linear_63_19_0)" fill-opacity="1.000000" fill-rule="evenodd"/>
		<path id="path" d="M11.63 20.29C13.31 17.12 13.48 15.94 12.43 13.45C11.63 11.55 10.3 9.57 9.25 7.67C8.79 6.78 7.29 4.25 6.62 3.49C5.99 2.81 5.53 2.9 5.03 3.53C3.94 4.92 1.64 9.36 0.97 11.09C0.51 12.27 0.22 13.45 0.05 14.63C-0.16 16.28 0.01 17.84 0.51 19.4C1.43 22.23 2.43 24.3 4.23 26.7C5.07 27.8 5.99 28.81 7.16 27.72C8.25 26.66 10.8 21.89 11.63 20.29Z" fill="url(#paint_linear_63_20_0)" fill-opacity="1.000000" fill-rule="evenodd"/>
	</g>
</svg>
