<svg width="15.407074" height="14.877106" viewBox="0 0 15.4071 14.8771" fill="none" xmlns="http://www.w3.org/2000/svg" xmlns:xlink="http://www.w3.org/1999/xlink">
	<desc>
			Created with Pixso.
	</desc>
	<defs/>
	<path id="path" d="M14.328 6.37628L14.6102 6.37628C15.0518 6.37628 15.4071 6.021 15.4071 5.57941L15.4071 1.32941C15.4071 1.00732 15.2145 0.715149 14.9157 0.592285C14.6169 0.469452 14.2749 0.535858 14.0457 0.764954L12.6645 2.14621C9.75591 -0.725861 5.07095 -0.715912 2.17896 2.17941C-0.726318 5.08469 -0.726318 9.79288 2.17896 12.6982C5.08423 15.6034 9.79243 15.6034 12.6977 12.6982C13.1127 12.2831 13.1127 11.6091 12.6977 11.1941C12.2827 10.779 11.6086 10.779 11.1936 11.1941C9.11841 13.2693 5.75493 13.2693 3.67973 11.1941C1.60454 9.11887 1.60454 5.75537 3.67973 3.68018C5.74496 1.61496 9.08188 1.60498 11.1604 3.64697L9.79575 5.01495C9.56665 5.24405 9.50024 5.58603 9.62309 5.88486C9.74594 6.18369 10.0381 6.37628 10.3602 6.37628L14.328 6.37628Z" fill="#FE5A81" fill-opacity="1.000000" fill-rule="nonzero"/>
</svg>
