<svg width="33.000000" height="33.000000" viewBox="0 0 26 23" fill="none" xmlns="http://www.w3.org/2000/svg" xmlns:xlink="http://www.w3.org/1999/xlink">
	<desc>
			Created with Pixso.
	</desc>
	<defs>
		<linearGradient id="paint_linear_63_7_0" x1="0.124997" y1="2.905597" x2="19.992397" y2="21.505013" gradientUnits="userSpaceOnUse">
			<stop stop-color="#143D71"/>
			<stop offset="1.000000" stop-color="#AFD2FF"/>
		</linearGradient>
	</defs>
	<path id="path" d="M19.37 21.5C19.37 19.22 16.29 17.37 12.5 17.37C8.7 17.37 5.62 19.22 5.62 21.5M24.87 17.37C24.87 15.68 23.17 14.23 20.75 13.59M0.12 17.37C0.12 15.68 1.82 14.23 4.25 13.59M20.75 8.07C21.59 7.32 22.12 6.22 22.12 5C22.12 2.72 20.27 0.87 18 0.87C16.94 0.87 15.97 1.27 15.25 1.92M4.25 8.07C3.4 7.32 2.87 6.22 2.87 5C2.87 2.72 4.72 0.87 7 0.87C8.05 0.87 9.02 1.27 9.75 1.92M8.37 9.12C8.37 6.84 10.22 5 12.5 5C14.77 5 16.62 6.84 16.62 9.12C16.62 11.4 14.77 13.25 12.5 13.25C10.22 13.25 8.37 11.4 8.37 9.12Z" stroke="url(#paint_linear_63_7_0)" stroke-opacity="1.000000" stroke-width="2.000000"/>
</svg>
